<?xml version="1.0" encoding="UTF-8"?>
<svg width="600px" height="349px" viewBox="0 0 600 349" version="1.1" xmlns="http://www.w3.org/2000/svg" xmlns:xlink="http://www.w3.org/1999/xlink">
    <title>Group 34</title>
    <g id="Page-1" stroke="none" stroke-width="1" fill="none" fill-rule="evenodd">
        <g id="Group-34">
            <path d="M600,330.942289 C600,331.463184 600,331.98408 599.826389,332.331343 C599.652778,335.630348 598.4375,338.929353 596.354167,341.707463 C593.055556,346.395522 587.673611,349 582.118056,349 C580.208333,349 578.472222,348.652736 576.736111,348.131841 C576.215278,347.958209 575.868056,347.958209 575.173611,347.784577 C574.305556,347.437313 573.263889,347.09005 572.395833,346.569154 C571.527778,346.569154 570.659722,346.395522 569.791667,346.048259 C568.229167,345.700995 566.666667,345.1801 565.277778,344.832836 C564.930556,344.659204 440.104167,311.669154 297.916667,308.022886 C286.979167,307.849254 276.041667,307.849254 265.277778,308.022886 C261.284722,308.196517 257.291667,308.370149 251.909722,308.717413 L251.041667,308.717413 C250.520833,308.717413 250.173611,308.717413 249.652778,308.543781 C229.861111,309.585572 210.416667,311.148259 191.666667,313.231841 C190.625,313.579104 189.756944,313.752736 188.715278,313.752736 C168.402778,316.183582 158.506944,317.572637 138.020833,321.045274 C137.5,321.218905 136.805556,321.218905 136.284722,321.218905 C135.763889,321.392537 135.243056,321.392537 134.722222,321.566169 C134.201389,321.739801 133.680556,321.913433 133.159722,321.913433 L131.076389,322.260697 C130.381944,322.434328 129.861111,322.434328 129.166667,322.60796 C128.645833,322.60796 128.125,322.781592 127.604167,322.781592 C127.083333,322.955224 126.5625,323.128856 126.041667,323.302488 C114.409722,325.38607 108.854167,326.601493 97.2222222,329.032338 C96.1805556,329.20597 95.3125,329.379602 94.2708333,329.379602 C82.6388889,331.98408 71.875,334.414925 62.5,336.672139 C61.2847222,337.366667 60.0694444,337.887562 58.6805556,338.234826 L56.7708333,338.755721 L54.1666667,339.276617 C53.4722222,339.623881 52.6041667,339.797512 51.7361111,340.144776 C40.2777778,343.096517 34.7222222,344.659204 23.0902778,348.305473 C21.3541667,348.826368 19.6180556,349 17.8819444,349 C12.5,349 7.11805556,346.395522 3.64583333,341.881095 C1.90972222,339.623881 0.868055556,337.019403 0.347222222,334.241294 L0,334.241294 L0,0 L599.826389,0 L599.826389,329.726866 C600,330.247761 600,330.595025 600,330.942289" id="Fill-1" fill="#D02128"></path>
            <path d="M128.984823,95.6740659 C128.897181,116.115448 128.827068,136.574139 128.739426,157.015522 C128.739426,157.655938 128.721897,158.227119 128.651784,158.746375 C128.301216,163.281212 126.565904,167.244867 123.445849,170.706575 C128.458971,168.058368 131.193402,163.852394 131.666668,157.9848 C131.719253,157.534778 131.75431,157.102064 131.75431,156.652042 C131.841952,136.314511 131.912066,115.959672 131.999708,95.6048318 C132.017236,92.6450719 131.245987,89.9449401 129.685959,87.5736705 C128.160989,85.2543266 126.145223,83.6100155 123.761361,82.658046 C127.26704,86.1024449 129.002352,90.4122706 128.984823,95.6740659 L128.984823,95.6740659 Z M92.8587941,174.497144 C92.8412657,189.797891 92.8237373,197.448265 92.7886805,212.749011 C93.0691349,216.729975 94.7518612,220.260917 97.8368593,223.272602 C98.660694,224.051486 99.0813756,224.449583 99.9052103,225.228467 C100.606346,225.055381 100.939386,224.95153 101.640522,224.778445 C97.8894445,221.178269 95.9437923,216.885752 95.7860367,212.039361 C95.8210935,197.223254 95.8386219,189.8152 95.8561503,174.999092 C95.5756959,174.981783 95.2251279,174.947166 94.7693896,174.877932 C94.0156684,174.739464 93.6300437,174.652921 92.8587941,174.497144 L92.8587941,174.497144 Z M92.9113793,151.130619 C93.7877993,151.078693 94.786918,151.061385 95.9087355,151.044076 C95.9437923,130.689237 95.9613207,120.494508 96.0139059,100.12236 C94.8044464,100.174286 94.2084808,100.191594 92.9990213,100.226211 C92.9639645,120.598359 92.9464361,130.775779 92.9113793,151.130619 L92.9113793,151.130619 Z M125.74207,157.379001 C125.74207,157.829023 125.707013,158.279045 125.654428,158.746375 C125.356445,162.398477 124.006758,165.583248 121.622896,168.300688 C119.326676,170.862351 116.714944,172.402811 113.770173,172.870142 C111.263613,173.25093 103.288191,172.437428 89.8789664,170.239244 C89.8439096,187.530473 89.8439096,196.184741 89.8088528,213.47597 C89.9666084,218.391595 91.9473174,222.70142 95.7509799,226.318905 C86.2330595,228.845951 81.4828636,230.178708 72,233 C75.961418,226.768927 77.9596555,221.316737 77.9596555,216.383804 C77.9771839,197.655967 77.9771839,188.292048 77.9947123,169.546903 C75.1726401,169.962308 73.1744027,171.00082 72,172.679748 C72.0175284,168.266071 73.2620447,164.354342 75.7510773,161.048411 C78.0823543,157.967491 80.799256,156.253946 83.9017825,155.803924 C87.179593,155.353902 97.1357234,156.669351 113.80523,159.507951 C113.875344,138.356919 113.945457,117.188578 113.998043,96.0375452 C104.39248,96.2798647 99.5896991,96.4010245 90.0016652,96.6779611 C89.9666084,118.729037 89.94908,129.754576 89.9140232,151.822961 C87.6879166,151.771035 85.6896792,151.874886 83.9193109,152.099897 C81.8684883,152.376834 79.8877793,153.328803 77.9947123,154.990423 C78.0122407,131.796983 78.0297691,120.200263 78.0472975,97.0241318 C78.0472975,92.0219646 76.0315316,87.0890315 72.0175284,82.0522472 C88.8272625,82.0176301 97.2408938,82.0176301 114.050628,82.0001593 C117.345967,81.983013 120.150511,83.3503875 122.499316,86.0159022 C124.830593,88.6987255 125.987467,91.9181134 125.970135,95.7433001 L125.74207,157.379001 Z" id="Fill-2" fill="#E9E4DD"></path>
            <path d="M154.130884,94.1408289 C154.19977,90.6181888 155.887486,86.9919417 159.19403,83.3484267 C160.020666,82.4159632 160.433984,81.9324635 161.26062,81 L163,81 C159.073479,85.3342287 157.110218,89.7202609 157.092997,94.0890253 C156.938002,128.814658 156.765786,163.540292 156.610792,198.265925 C156.593571,202.565618 158.522388,206.55449 162.397245,210.198005 C161.708381,210.31888 161.346728,210.370683 160.657865,210.508826 C159.84845,209.749041 159.435132,209.369148 158.625718,208.609363 C155.353617,205.58749 153.700344,202.289332 153.665901,198.766692 C153.820896,163.902916 153.97589,129.021873 154.130884,94.1408289 M150.703789,199.284728 C150.686567,203.618956 152.632606,207.625096 156.559127,211.251343 C147.121699,213.012663 142.402985,213.962394 133,216 C136.960964,210.629701 138.941447,205.82924 138.958668,201.408672 C139.113662,165.750576 139.268657,130.109747 139.406429,94.45165 C139.423651,89.9792786 137.477612,85.5414428 133.533869,81.0172678 C142.988519,81.0172678 147.707233,81.0172678 157.144661,81 C153.183697,85.3687644 151.185993,89.8066002 151.168772,94.1926324 C151.013777,129.229087 150.858783,164.248273 150.703789,199.284728" id="Fill-3" fill="#E9E4DD"></path>
            <path d="M231.178233,81 L233,81 C229.009464,85.0377485 226.996845,89.1101558 226.996845,93.1652337 C226.944795,102.835035 226.944795,107.652606 226.892744,117.322407 C225.712934,117.357066 225.105678,117.374395 223.908517,117.409054 C223.943218,107.721924 223.960568,102.869694 223.995268,93.1998925 C224.082019,89.9246373 225.764984,86.5800645 229.096215,83.1835035 C229.929022,82.3170339 230.345426,81.883799 231.178233,81 L231.178233,81 Z M218.634069,130.406099 C221.063091,131.099275 223.023659,132.450967 224.515773,134.478506 C226.042587,136.558033 226.823344,138.914831 226.805994,141.566228 C226.736593,160.957818 226.701893,170.644949 226.632492,190.036539 C226.615142,192.687937 225.834385,195.131381 224.272871,197.43619 C222.763407,199.637023 220.785489,201.283315 218.356467,202.323079 C221.861199,198.909189 223.613565,194.923428 223.630915,190.29648 C223.717666,170.852902 223.752366,161.131112 223.821767,141.704863 C223.839117,137.077915 222.104101,133.317437 218.634069,130.406099 L218.634069,130.406099 Z M187.90694,191.024315 L187.94164,181.631784 C188.011041,178.183235 189.711356,174.509404 193.059937,170.696937 C193.892744,169.743821 194.309148,169.275927 195.141956,168.32281 C195.835962,168.253493 196.182965,168.218834 196.894322,168.166846 C192.938486,172.689817 190.960568,177.074154 190.925868,181.215879 C190.908517,184.993686 190.908517,186.865261 190.891167,190.643068 C189.694006,190.799033 189.104101,190.86835 187.90694,191.024315 L187.90694,191.024315 Z M191.324921,96.7350887 C191.255521,111.23979 191.22082,118.500806 191.15142,132.988178 C189.988959,133.421413 189,133.768001 188.167192,134.045271 C188.236593,119.141994 188.271293,111.690355 188.340694,96.8044062 L191.324921,96.7350887 Z M209.004732,130.232805 C212.266562,130.07684 215.059937,131.168592 217.367508,133.438743 C219.692429,135.708893 220.837539,138.516255 220.837539,141.843498 C220.750789,161.339065 220.716088,171.078184 220.646688,190.556421 C220.629338,193.900994 219.449527,196.86432 217.107256,199.481059 C214.764984,202.097797 211.971609,203.605454 208.692429,203.986701 C191.984227,205.927593 183.638801,207.14065 167,210 C171.007886,204.991805 173.020505,200.451505 173.037855,196.223133 C173.089905,185.998791 173.107256,180.869291 173.159306,170.62762 C180.290221,169.813138 183.847003,169.431891 190.995268,168.721386 C186.987382,173.313675 184.974763,177.75 184.957413,181.909054 C184.940063,186.969237 184.922713,189.499328 184.888013,194.559511 C194.430599,193.294465 199.201893,192.722595 208.744479,191.73482 C208.83123,172.0313 208.865931,162.188205 208.952681,142.502015 C206.957413,142.623321 202.966877,143.871037 196.981073,146.36647 C191.064669,148.861902 187.091483,150.248254 185.113565,150.421548 C181.834385,150.681488 179.05836,149.693713 176.750789,147.406233 C174.425868,145.101424 173.280757,142.155427 173.298107,138.585572 L173.523659,93.8757389 C173.523659,90.3232133 174.70347,87.2559108 177.045741,84.7604782 C179.370662,82.2650457 182.164038,81.0173294 185.425868,81.0173294 C202.064669,81.0173294 210.392744,81 227.031546,81 C223.041009,85.0550779 221.028391,89.1448146 221.011041,93.2172219 C220.976341,102.939011 220.958991,107.791241 220.92429,117.495701 C213.793375,117.720983 210.219243,117.82496 203.088328,118.10223 C207.078864,113.873858 209.091483,109.732133 209.108833,105.625067 C209.126183,100.720849 209.143533,98.2600752 209.160883,93.3558571 C199.635647,93.4771628 194.881703,93.5464804 185.373817,93.6851155 C185.287066,111.309108 185.252366,120.129769 185.165615,137.753761 C187.160883,137.615126 191.134069,136.332751 197.033123,133.958624 C203.018927,131.567168 207.009464,130.336781 209.004732,130.232805 L209.004732,130.232805 Z" id="Fill-4" fill="#E9E4DD"></path>
            <path d="M308.06761,115.385883 L305.092767,115.385883 L305.092767,97.6842643 C305.075472,95.3587575 305.075472,94.1786496 305.075472,91.8531428 C305.075472,88.7119732 306.753145,85.4840309 310.125786,82.134607 C310.97327,81.2842351 311.40566,80.8503719 312.27044,80 L314,80 C310.039308,83.9568324 308.050314,87.8963103 308.050314,91.8531428 C308.06761,101.259297 308.06761,105.979729 308.06761,115.385883 M281.43239,94.8381216 C282.625786,94.8381216 283.213836,94.8207671 284.407233,94.8207671 C284.372642,125.330028 284.355346,155.839288 284.320755,186.348549 C284.320755,190.253318 286.292453,194.140732 290.218553,198.028146 C289.52673,198.045501 289.163522,198.045501 288.471698,198.062855 C287.641509,197.247193 287.226415,196.848039 286.396226,196.032376 C283.075472,192.804433 281.380503,189.593846 281.328616,186.417967 C281.363208,155.891352 281.397799,125.364737 281.43239,94.8381216 M260.677673,94.9422488 C260.660377,98.4825726 260.660377,100.270089 260.660377,103.810413 C260.643082,106.309465 261.628931,109.034126 263.617925,111.984396 L263.617925,114.483448 C263.254717,114.119002 263.064465,113.945457 262.701258,113.581012 C259.397799,110.318361 257.720126,107.073064 257.685535,103.845122 C257.685535,100.252734 257.685535,98.465218 257.70283,94.8728307 C258.896226,94.9075397 259.484277,94.9075397 260.677673,94.9422488 M302.187107,115.385883 C295.044025,115.368529 291.463836,115.385883 284.303459,115.420592 C288.281447,111.498469 290.27044,107.576345 290.27044,103.619513 C290.27044,98.9164358 290.27044,96.5562199 290.287736,91.8531428 C285.548742,91.8531428 283.196541,91.8704973 278.457547,91.8704973 C278.422956,123.42103 278.371069,154.954207 278.336478,186.487385 C278.336478,190.392154 280.290881,194.262214 284.234277,198.132274 C274.721698,198.340528 269.948113,198.496719 260.45283,199 C264.378931,194.800204 266.367925,190.791308 266.367925,186.869185 C266.437107,155.23188 266.488994,123.57722 266.558176,91.9225609 C261.819182,91.9399154 259.449686,91.9572699 254.727987,91.991979 C254.710692,96.7471197 254.710692,99.1246901 254.693396,103.879831 C254.693396,107.871372 256.665094,111.81085 260.625786,115.68091 C253.517296,115.802392 249.954403,115.87181 242.828616,116.028001 C242.863208,106.448301 242.880503,101.641097 242.915094,92.0613971 C242.915094,88.0525011 240.943396,84.0436051 237,80.0173545 C260.677673,80 284.372642,80 308.050314,80 C304.089623,83.9394779 302.100629,87.8963103 302.100629,91.8531428 C302.13522,101.259297 302.152516,105.962374 302.187107,115.385883" id="Fill-5" fill="#E9E4DD"></path>
            <path d="M374.655945,93.182695 C374.638545,89.9639716 376.326391,86.6760284 379.684682,83.2323404 C380.519905,82.3497872 380.937516,81.8998582 381.755339,81.017305 L383.495386,81.017305 C379.580279,85.1012766 377.631426,89.1506383 377.648827,93.2 C377.77063,125.577589 377.892433,157.937872 378.014237,190.298156 C378.049038,194.295603 380.032692,198.500709 384,203 C383.303981,202.93078 382.938571,202.89617 382.242552,202.809645 C381.407329,201.875177 380.989718,201.407943 380.154495,200.473475 C376.900606,196.839433 375.19536,193.361135 375.021355,190.038582 C374.899552,157.747518 374.777748,125.456454 374.655945,93.182695 L374.655945,93.182695 Z M338.89797,95.8822695 C340.098603,95.8995745 340.690219,95.8995745 341.890852,95.8995745 C341.960453,125.560284 342.030055,155.220993 342.099657,184.881702 C340.899025,184.829787 340.290008,184.795177 339.089375,184.743262 L338.89797,95.8822695 Z M359.761139,93.0442553 C350.225679,92.9750355 345.440548,92.9404255 335.905088,92.9058156 C335.95729,124.470071 336.026892,156.034326 336.079093,187.598582 C345.684155,187.979291 350.486686,188.238865 360.074347,188.896454 C359.969945,156.934184 359.865542,124.98922 359.761139,93.0442553 L359.761139,93.0442553 Z M377.596625,81.017305 C373.629317,85.0839716 371.645663,89.1160284 371.663064,93.1480851 C371.784867,125.369929 371.88927,157.574468 372.011073,189.779007 C372.028474,193.776454 374.046929,197.94695 378.066438,202.394326 C358.212497,200.35234 338.062747,199.158298 318.121803,198.812199 C322.123912,194.953191 324.124967,191.094184 324.124967,187.200567 C324.090166,155.757447 324.037965,124.297021 324.003164,92.8539007 C324.003164,88.9083688 322.002109,84.9455319 318,81 C337.871342,81 357.742684,81.017305 377.596625,81.017305 L377.596625,81.017305 Z" id="Fill-6" fill="#E9E4DD"></path>
            <path d="M447.977912,199.694818 C447.995267,204.052343 450.008414,208.757081 454,214 C453.271102,213.861115 452.906653,213.791672 452.177754,213.635426 C451.344728,212.541705 450.928215,212.003524 450.095188,210.927164 C446.763082,206.60436 445.062319,202.732933 444.9929,199.191359 C444.958191,188.688161 444.923481,183.427881 444.888772,172.924683 C446.068893,173.080929 446.658953,173.167733 447.856429,173.323979 C447.908493,183.879259 447.925848,189.139538 447.977912,199.694818 M408.860373,93.6038376 C408.860373,90.287952 410.526427,86.8679024 413.875887,83.3089675 C414.708914,82.3888526 415.108073,81.9374755 415.941099,81.0173607 L417.676571,81.0173607 C413.771759,85.2533612 411.828031,89.4372797 411.845385,93.6559196 C412.001578,126.155071 412.15777,158.654223 412.296608,191.170735 C411.099132,191.014489 410.509072,190.927686 409.311596,190.7888 C409.172758,158.393813 409.016566,125.998825 408.860373,93.6038376 M442.007889,198.6879 C442.042598,203.010704 444.038391,207.66336 448.029976,212.836836 C428.401788,209.000131 408.391796,205.962015 388.503287,203.809294 C392.494872,200.146195 394.473311,196.274768 394.455956,192.195014 C394.299763,159.261846 394.160926,126.328678 394.022088,93.4128704 C394.004733,89.2810338 391.991586,85.1144759 388,81 C397.510387,81 402.282935,81.0173607 411.793321,81.0173607 C407.836445,85.2186399 405.858007,89.3851978 405.875362,93.5691163 C406.031554,126.901579 406.187747,160.234043 406.343939,193.566506 C415.87168,194.72967 420.644228,195.389375 430.154615,196.812949 C430.13726,191.656833 430.119905,189.070095 430.102551,183.896619 C430.085196,179.660619 428.072048,175.112126 424.063108,170.390027 C431.213253,171.188618 434.77097,171.622634 441.886405,172.542749 C441.93847,182.993865 441.973179,188.236784 442.007889,198.6879" id="Fill-7" fill="#E9E4DD"></path>
            <path d="M513.295026,81.0519198 C512.574614,82.0383954 512.214408,82.5229799 511.493997,83.5094556 C508.61235,87.5072779 507.308748,91.3839542 507.58319,95.2433238 C510.825043,134.788883 513.998285,174.334441 517.102916,213.897307 C517.497427,218.120115 519.504288,222.775587 523.106346,228.002178 C524.084048,229.421318 524.564322,230.130888 525.542024,231.550029 C526.125214,231.723095 526.41681,231.809628 527,232 C522.746141,225.648481 520.413379,220.075759 520.036021,215.074155 C516.931389,175.251691 513.758148,135.446533 510.533448,95.6240688 C510.138937,90.7955301 511.716981,85.984298 515.267581,81.0519198 L513.295026,81.0519198 M487.377358,98.5142693 C485.64494,119.835989 484.770154,130.427622 483.037736,151.420516 C484.03259,151.212837 485.027444,151.005158 486.056604,150.814785 C487.754717,130.13341 488.61235,119.714842 490.327616,98.7046418 C490.29331,98.6700287 490.276158,98.6527221 490.241852,98.6008023 C489.092624,98.5661891 488.526587,98.5488825 487.377358,98.5142693 M484.169811,173.503725 C483.089194,173.642178 482.111492,173.746017 481.236707,173.797937 C480.173242,186.535587 479.641509,192.869799 478.578045,205.486304 C478.372213,209.172607 479.71012,213.153123 482.608919,217.58361 C483.295026,218.673926 483.638079,219.227736 484.324185,220.318052 C485.113208,220.508424 485.490566,220.612264 486.279588,220.802636 C482.728988,215.247221 481.150943,210.314842 481.511149,205.815129 C482.574614,192.956332 483.106346,186.500974 484.169811,173.503725 M497.909091,223.762063 C501.408233,219.902693 502.969125,215.506819 502.591767,210.660974 C501.150943,193.164011 500.430532,184.476103 498.989708,167.221433 C496.554031,167.290659 493.123499,167.84447 488.818182,168.865559 C484.581475,169.886648 481.150943,170.405845 478.543739,170.388539 C477.411664,184.147278 476.845626,190.983381 475.713551,204.603668 C475.301887,209.051461 476.862779,213.914613 480.413379,219.383496 C471.06518,217.150946 466.382504,216.11255 457,214.191519 C461.288165,210.609054 463.603774,206.611232 463.963979,202.232665 C465.181818,187.798968 465.799314,180.547507 467.017153,165.958052 C464.118353,162.912092 462.660377,159.277708 462.643225,154.968367 C464.667238,157.512436 469.264151,158.031633 476.365352,156.560573 C487.720412,154.206877 494.941681,152.995415 497.823328,152.908883 C495.867925,129.596905 494.890223,118.05341 492.93482,95.1394842 C489.624357,95.0529513 487.977702,95.0183381 484.667238,94.9318052 C482.797599,118.070716 481.871355,129.544986 480.018868,152.303152 C474.307033,153.653066 470.310463,154.206877 468.02916,153.999198 C469.675815,134.217765 471.32247,114.436332 472.951973,94.6375931 C472.93482,89.6186819 471.356775,85.0324355 468.234991,81 C484.684391,81.0173066 492.917667,81.0346132 509.367067,81.0519198 C505.816467,85.9323782 504.238422,90.674384 504.632933,95.4683095 C507.891938,134.823496 511.06518,174.178682 514.186964,213.551175 C514.581475,218.50086 516.914237,224.004355 521.168096,230.252034 C511.888508,227.500287 507.222985,226.202292 497.909091,223.762063" id="Fill-8" fill="#E9E4DD"></path>
            <polygon id="Fill-9" fill="#E9E4DD" points="253.635371 57.5855799 261.706878 38 269 38 269 64.8984326 264.092795 64.8984326 264.092795 42.8583072 255.07369 65 251.621725 65 242.687227 43.0445141 242.687227 64.8984326 238 64.8984326 238 38 245.614629 38"></polygon>
            <path d="M294.854227,55.0802508 L289.851312,44.2125392 L284.830904,55.0802508 L294.854227,55.0802508 Z M296.848397,59.4815047 L282.836735,59.4815047 L280.300292,65 L275,65 L287.489796,38 L292.475219,38 L305,65 L299.402332,65 L296.848397,59.4815047 Z" id="Fill-10" fill="#E9E4DD"></path>
            <polygon id="Fill-11" fill="#E9E4DD" points="320.895044 65 315.489796 65 315.489796 53.6324733 303 38 309.699708 38 318.358601 48.9937067 326.965015 38 333 38 320.895044 53.5984896"></polygon>
            <path d="M351.865811,55.0802508 L346.859977,44.2125392 L341.836639,55.0802508 L351.865811,55.0802508 Z M353.861144,59.4815047 L339.841307,59.4815047 L337.285881,65 L332,65 L344.497083,38 L349.467911,38 L362,65 L356.399067,65 L353.861144,59.4815047 Z" id="Fill-12" fill="#E9E4DD"></path>
            <path d="M120,51.4915 C120,52.1885 120.540861,52.7665 121.221298,52.7665 L209.992246,52.7665 C210.009693,52.3245 209.992246,52.7665 209.992246,52.3585 L209.992246,50.2335 L121.221298,50.2335 C120.540861,50.2335 120,50.7945 120,51.4915" id="Fill-13" fill="#E9E4DD"></path>
            <path d="M134.175169,51.9975547 L148.017481,58.8005389 L153.761327,51.9975547 L148.017481,45.1945705 L134.175169,51.9975547 Z M148.249376,61 C148.106671,61 147.963967,60.9658998 147.839101,60.8976995 L131.535141,52.8841592 C131.214056,52.7136583 131,52.3726566 131,51.9975547 C131,51.6224528 131.214056,51.2814511 131.535141,51.1109502 L147.839101,43.0974099 C148.231538,42.909859 148.695326,42.9951094 148.980735,43.3361111 L155.759187,51.3496514 C156.080271,51.7247533 156.080271,52.2703561 155.759187,52.645458 L148.980735,60.6589983 C148.802355,60.8806494 148.534784,61 148.249376,61 L148.249376,61 Z" id="Fill-14" fill="#E9E4DD"></path>
            <path d="M117.5,49.4625624 C116.284672,49.4625624 115.29927,50.59401 115.29927,51.9916805 C115.29927,53.3893511 116.284672,54.5207987 117.5,54.5207987 C118.715328,54.5207987 119.70073,53.3893511 119.70073,51.9916805 C119.70073,50.59401 118.715328,49.4625624 117.5,49.4625624 M117.5,57 C115.020073,57 113,54.7537438 113,51.9916805 C113,49.2296173 115.020073,47 117.5,47 C119.979927,47 122,49.2296173 122,51.9916805 C122,54.7537438 119.979927,57 117.5,57" id="Fill-15" fill="#E9E4DD"></path>
            <path d="M106.5,49.4625624 C105.284672,49.4625624 104.29927,50.59401 104.29927,51.9916805 C104.29927,53.3893511 105.284672,54.5207987 106.5,54.5207987 C107.715328,54.5207987 108.70073,53.3893511 108.70073,51.9916805 C108.70073,50.59401 107.715328,49.4625624 106.5,49.4625624 M106.5,57 C104.020073,57 102,54.7537438 102,51.9916805 C102,49.2296173 104.020073,47 106.5,47 C108.979927,47 111,49.2296173 111,51.9916805 C111,54.7537438 108.979927,57 106.5,57" id="Fill-16" fill="#E9E4DD"></path>
            <path d="M214.5,49.4625624 C213.284672,49.4625624 212.29927,50.59401 212.29927,51.9916805 C212.29927,53.3893511 213.284672,54.5207987 214.5,54.5207987 C215.715328,54.5207987 216.70073,53.3893511 216.70073,51.9916805 C216.70073,50.59401 215.715328,49.4625624 214.5,49.4625624 M214.5,57 C212.020073,57 210,54.7537438 210,51.9916805 C210,49.2296173 212.020073,47 214.5,47 C216.979927,47 219,49.2296173 219,51.9916805 C219,54.7537438 216.979927,57 214.5,57" id="Fill-17" fill="#E9E4DD"></path>
            <path d="M170.871146,60 C170.633146,60 170.378146,59.8981282 170.191146,59.6943845 L163.442146,52.206805 C163.085146,51.8162964 163.085146,51.1880868 163.442146,50.7975781 L170.191146,43.3099986 C170.548146,42.9025113 171.160146,42.9025113 171.534146,43.2760413 C171.908146,43.66655 171.925146,44.3117383 171.568146,44.7192256 L165.431146,51.5106809 L171.551146,58.2851575 C171.925146,58.6926449 171.908146,59.3378331 171.534146,59.7283418 C171.347146,59.9151068 171.109146,60 170.871146,60" id="Fill-18" fill="#E9E4DD"></path>
            <path d="M479,51.5 C479,50.803 478.459139,50.242 477.778702,50.242 L389.007754,50.242 C388.990307,50.667 389.007754,50.242 389.007754,50.633 L389.007754,52.758 L477.778702,52.758 C478.459139,52.758 479,52.197 479,51.5" id="Fill-19" fill="#E9E4DD"></path>
            <path d="M465.824831,52.0024453 L451.982519,45.1994611 L446.238673,52.0024453 L451.982519,58.8054295 L465.824831,52.0024453 Z M451.750624,43 C451.893329,43 452.036033,43.0341002 452.160899,43.1023005 L468.464859,51.1158408 C468.785944,51.2863417 469,51.6273434 469,52.0024453 C469,52.3775472 468.785944,52.7185489 468.464859,52.8890498 L452.160899,60.9025901 C451.768462,61.090141 451.304674,61.0048906 451.019265,60.6638889 L444.240813,52.6503486 C443.919729,52.2752467 443.919729,51.7296439 444.240813,51.354542 L451.019265,43.3410017 C451.197645,43.1193506 451.465216,43 451.750624,43 L451.750624,43 Z" id="Fill-20" fill="#E9E4DD"></path>
            <path d="M482.5,54.5207987 C483.715328,54.5207987 484.70073,53.3893511 484.70073,51.9916805 C484.70073,50.59401 483.715328,49.4625624 482.5,49.4625624 C481.284672,49.4625624 480.29927,50.59401 480.29927,51.9916805 C480.29927,53.3893511 481.284672,54.5207987 482.5,54.5207987 M482.5,47 C484.979927,47 487,49.2296173 487,51.9916805 C487,54.7537438 484.979927,57 482.5,57 C480.020073,57 478,54.7537438 478,51.9916805 C478,49.2296173 480.020073,47 482.5,47" id="Fill-21" fill="#E9E4DD"></path>
            <path d="M494.5,54.5207987 C495.715328,54.5207987 496.70073,53.3893511 496.70073,51.9916805 C496.70073,50.59401 495.715328,49.4625624 494.5,49.4625624 C493.284672,49.4625624 492.29927,50.59401 492.29927,51.9916805 C492.29927,53.3893511 493.284672,54.5207987 494.5,54.5207987 M494.5,47 C496.979927,47 499,49.2296173 499,51.9916805 C499,54.7537438 496.979927,57 494.5,57 C492.020073,57 490,54.7537438 490,51.9916805 C490,49.2296173 492.020073,47 494.5,47" id="Fill-22" fill="#E9E4DD"></path>
            <path d="M386.5,54.5207987 C387.715328,54.5207987 388.70073,53.3893511 388.70073,51.9916805 C388.70073,50.59401 387.715328,49.4625624 386.5,49.4625624 C385.284672,49.4625624 384.29927,50.59401 384.29927,51.9916805 C384.29927,53.3893511 385.284672,54.5207987 386.5,54.5207987 M386.5,47 C388.979927,47 391,49.2296173 391,51.9916805 C391,54.7537438 388.979927,57 386.5,57 C384.020073,57 382,54.7537438 382,51.9916805 C382,49.2296173 384.020073,47 386.5,47" id="Fill-23" fill="#E9E4DD"></path>
            <path d="M429.128854,43 C429.383854,43 429.621854,43.1018852 429.808854,43.3226364 L436.557854,50.794216 C436.914854,51.2017567 436.914854,51.8130677 436.557854,52.2036276 L429.808854,59.692188 C429.451854,60.0997287 428.839854,60.0997287 428.465854,59.7091689 C428.091854,59.3355899 428.074854,58.6903171 428.431854,58.2827764 L434.551854,51.5074122 L428.448854,44.7150671 C428.074854,44.3245073 428.091854,43.6792345 428.465854,43.2886747 C428.652854,43.1018852 428.890854,43 429.128854,43" id="Fill-24" fill="#E9E4DD"></path>
            <path d="M192.874206,244.077369 L188.36277,233.197292 L183.851334,244.077369 L192.874206,244.077369 Z M194.675349,248.464217 L182.050191,248.464217 L179.751588,254 L175,254 L186.252859,227 L190.729987,227 L202,254 L196.956798,254 L194.675349,248.464217 Z" id="Fill-25" fill="#E9E4DD"></path>
            <path d="M229,250.140449 C227.284823,251.724719 223.663895,254 217.860014,254 C209.440055,254 204,248.455056 204,240.41573 C204,232.646067 209.405405,227 216.993763,227 C224.44352,227 227.544699,231.365169 228.393624,234.146067 L223.334719,234.146067 C222.589744,233.202247 220.735967,231.365169 216.993763,231.365169 C212.021483,231.365169 208.885655,235.292135 208.885655,240.41573 C208.885655,245.859551 212.333333,249.634831 217.894664,249.634831 C221.169092,249.634831 223.369369,248.741573 224.40887,248.016854 L224.40887,242.691011 L215.503812,242.691011 L215.503812,238.511236 L229,238.511236 L229,250.140449 Z" id="Fill-26" fill="#E9E4DD"></path>
            <path d="M249.874206,244.077369 L245.36277,233.197292 L240.851334,244.077369 L249.874206,244.077369 Z M251.675349,248.464217 L239.050191,248.464217 L236.751588,254 L232,254 L243.252859,227 L247.729987,227 L259,254 L253.956798,254 L251.675349,248.464217 Z" id="Fill-27" fill="#E9E4DD"></path>
            <polygon id="Fill-28" fill="#E9E4DD" points="277.070596 254 272.261658 254 261 227 266.543394 227 274.762306 247.624516 283.033679 227 288 227"></polygon>
            <polygon id="Fill-29" fill="#E9E4DD" points="290 227 310.572785 227 310.572785 231.403883 294.786392 231.403883 294.786392 237.572816 304.202532 237.572816 304.202532 242.029126 294.786392 242.029126 294.786392 249.473786 312 249.473786 312 254 290 254"></polygon>
            <path d="M321.809886,231.561165 L321.809886,239.093204 L330.834981,239.093204 C333.668441,239.093204 335.0327,237.607767 335.0327,235.335922 C335.0327,232.88932 333.703422,231.561165 330.834981,231.561165 L321.809886,231.561165 Z M317,227 L331.079848,227 C336.834221,227 340,229.883495 340,235.248544 C340,240.456311 336.834221,243.654369 331.079848,243.654369 L321.809886,243.654369 L321.809886,254 L317,254 L317,227 Z" id="Fill-30" fill="#E9E4DD"></path>
            <path d="M362.328125,241.733503 L362.328125,227 L367,227 L367,242.076142 C367,248.706218 363.029762,254 355.534226,254 C347.799107,254 344,248.774746 344,242.076142 L344,227 L348.75744,227 L348.75744,241.733503 C348.75744,246.324873 351.136161,249.340102 355.534226,249.340102 C359.863839,249.340102 362.328125,246.324873 362.328125,241.733503" id="Fill-31" fill="#E9E4DD"></path>
            <path d="M378.616788,231.526214 L378.616788,238.446602 L387.313139,238.446602 C389.965693,238.446602 391.308759,237.31068 391.308759,235.056311 C391.308759,232.592233 389.965693,231.526214 387.313139,231.526214 L378.616788,231.526214 Z M374,227 L387.69927,227 C393.071533,227 396.076642,229.743689 396.076642,235.056311 C396.076642,238.708738 394.381022,241.295146 391.241606,242.361165 L397,254 L392.114599,254 L386.557664,242.902913 L378.616788,242.902913 L378.616788,254 L374,254 L374,227 Z" id="Fill-32" fill="#E9E4DD"></path>
            <path d="M416.874206,244.077369 L412.36277,233.197292 L407.851334,244.077369 L416.874206,244.077369 Z M418.675349,248.464217 L406.050191,248.464217 L403.751588,254 L399,254 L410.252859,227 L414.729987,227 L426,254 L420.956798,254 L418.675349,248.464217 Z" id="Fill-33" fill="#E9E4DD"></path>
        </g>
    </g>
</svg>