<svg xmlns="http://www.w3.org/2000/svg" xmlns:xlink="http://www.w3.org/1999/xlink" width="300" zoomAndPan="magnify" viewBox="0 0 224.87999 225" height="300" preserveAspectRatio="xMidYMid meet" version="1.0"><defs><clipPath id="6bebacaedc"><path d="M 0 0.0585938 L 224.761719 0.0585938 L 224.761719 224.9375 L 0 224.9375 Z M 0 0.0585938 " clip-rule="nonzero"/></clipPath><clipPath id="d6e7169ea0"><path d="M 36.90625 30.511719 L 188 30.511719 L 188 194.675781 L 36.90625 194.675781 Z M 36.90625 30.511719 " clip-rule="nonzero"/></clipPath></defs><g clip-path="url(#6bebacaedc)"><path fill="#ffffff" d="M 0 0.0585938 L 224.878906 0.0585938 L 224.878906 224.941406 L 0 224.941406 Z M 0 0.0585938 " fill-opacity="1" fill-rule="nonzero"/><path fill="#222222" d="M 0 0.0585938 L 224.878906 0.0585938 L 224.878906 224.941406 L 0 224.941406 Z M 0 0.0585938 " fill-opacity="1" fill-rule="nonzero"/></g><g clip-path="url(#d6e7169ea0)"><path fill="#ffffff" d="M 111.957031 30.515625 C 111.957031 30.515625 112.433594 112.5 36.90625 113.214844 C 36.90625 113.214844 112.433594 112.5 111.957031 194.480469 C 111.957031 194.480469 111.957031 112.738281 187.964844 112.5 C 187.964844 112.5 111.957031 112.738281 111.957031 30.515625 Z M 111.957031 30.515625 " fill-opacity="1" fill-rule="nonzero"/></g></svg>